<!--?xml version="1.0" encoding="utf-8"?-->
<!-- Svg Vector Icons : http://www.onlinewebfonts.com/icon -->

<svg version="1.1" xmlns="http://www.w3.org/2000/svg" xmlns:xlink="http://www.w3.org/1999/xlink" x="0px" y="0px" viewBox="0 0 256 256" enable-background="new 0 0 256 256" xml:space="preserve">
<metadata> Svg Vector Icons : http://www.onlinewebfonts.com/icon </metadata>
<g><g><g><path fill="#3f7f2b" data-title="Layer 0" xs="0" d="M79.7,36c-1.8,1.8-2.3,2.7-2.1,3.2c0.2,0.4,3.1,4.2,6.4,8.5l6,7.8l3,1.1c2.9,1,3.5,1.5,13.5,11.4l10.4,10.4l2.6-2.2c1.4-1.2,2.6-2.3,2.6-2.5c0-0.2-4.7-4.9-10.4-10.6c-10.3-10.3-10.4-10.4-11.4-13.6l-1-3.2l-8.4-6.4c-4.6-3.5-8.5-6.4-8.5-6.4C82.2,33.5,81,34.6,79.7,36z"/><path fill="#3f7f2b" data-title="Layer 1" xs="1" d="M155.6,33.9c-5.5,1-11.7,3.5-15.1,6.5l-1.6,1.3l5.8,5.8l5.8,5.8l9.5-9.5c6.4-6.4,9.4-9.7,9-9.9C168.3,33.4,158.5,33.5,155.6,33.9z"/><path fill="#3f7f2b" data-title="Layer 2" xs="2" d="M167.9,53.5l-10.6,10.9l-10-10.2c-5.5-5.6-10.2-10.2-10.5-10.2s-1,1.2-1.8,2.6c-1.2,2.4-1.3,3.1-1.3,7.3c0,3,0.3,5.8,0.9,8l0.9,3.4l-1.1,1.1c-0.6,0.6-7.5,6.9-15.4,14.1c-16.9,15.5-37.8,34.8-39.5,36.7c-3.8,4.1-3.4,8.9,1.1,13.8c3.9,4.2,7.9,5.6,11.5,4.1c2.7-1.2,9.3-8.3,42.8-45.7l10.8-12.1l3.9,0.2c2.2,0.1,6.5,0.3,9.6,0.4c6.5,0.1,6.1,0.3,10.3-5.1c5.5-6.9,8.9-15.2,9.4-22.9c0.2-2.3,0.1-4.9-0.1-5.8l-0.4-1.5L167.9,53.5z M94.3,114.8c2.5,1.3,3.5,2.9,3.6,5.7c0.2,3.1-0.7,5.1-3.2,6.5c-3,1.8-7.1,0.8-9.2-2.4c-1.2-2-1.1-6.3,0.3-7.8C88.2,114.3,91.7,113.4,94.3,114.8z"/><path fill="#6cb654" data-title="Layer 3" xs="3" d="M54.2,79.1l-1.5,1.3L52.5,123c0,23.4,0,43.2,0.1,44.1c0.2,0.8,0.8,2,1.5,2.6l1.2,1.1h72.9h72.9l1.2-1.2c0.7-0.6,1.3-1.8,1.5-2.7c0.1-0.8,0.2-20.6,0.1-44l-0.1-42.6l-1.5-1.3l-1.5-1.3h-14H173l-4.1,4.9l-4.1,5l11.8,0.1c11.5,0.1,11.8,0.1,11.8,1.1c0,0.5,1.2,16.7,2.8,36c1.5,19.3,2.8,35.4,2.8,35.7c0,0.6-8.6,0.7-65.7,0.7H62.6v-36.7V87.9h18.7h18.7l5.3-4.9c2.9-2.7,5.3-5,5.3-5.1s-12.4-0.2-27.4-0.2H55.7L54.2,79.1z"/><path fill="#3f7f2b" data-title="Layer 4" xs="4" d="M136.2,92.7c-2.7,2.9-4.9,5.4-4.9,5.6c0,0.4,28.6,31.6,29,31.6c0.1,0,3.2-2.9,6.8-6.6l6.5-6.5l-15.4-14.1c-8.5-7.7-15.8-14.3-16.2-14.7C141.1,87.5,140.5,87.9,136.2,92.7z"/><path fill="#3f7f2b" data-title="Layer 5" xs="5" d="M167.8,124.5l-6.6,6.6l3.8,2.4l3.9,2.4l5.3-5.2l5.2-5.2l-2-3.2c-1.1-1.8-2.2-3.5-2.4-3.7C174.5,118,172.8,119.4,167.8,124.5z"/><path fill="#6cb654" data-title="Layer 6" xs="6" d="M51.9,173.3c-0.7,0.3-10.4,9.4-21.6,20.1c-22.5,21.7-21.1,19.9-19.6,24.8c0.4,1.4,1.2,2.7,1.9,3.3l1.2,1h114.4h114.5l1.2-1.4c1.3-1.5,2.4-5.8,2-7.4c-0.3-1.3-39.9-39.6-41.7-40.4C202.4,172.5,53.7,172.5,51.9,173.3z M66.5,176.5c-0.2,0.3-0.9,1.3-1.5,2.1l-1.2,1.5h-5.3h-5.3l2-2.1l2-2.1H62C65.7,175.9,66.7,176.1,66.5,176.5z M82.4,177.8c-0.6,1.1-1.2,2-1.6,2.1c-0.3,0.1-2.7,0.1-5.3,0.1l-4.7-0.1l1.4-2l1.4-1.9h4.8h4.8L82.4,177.8z M99.7,176.7c-0.2,0.5-0.6,1.4-0.8,2.1l-0.5,1.3h-5c-5.5,0-5.7-0.1-4.1-2.7l0.9-1.5h4.9C99.6,175.9,100,176,99.7,176.7z M116.3,177.4c-0.1,0.8-0.3,1.8-0.5,2.1c-0.1,0.5-1.6,0.6-5.3,0.6h-5.1l0.3-1.3c0.7-2.9,0.7-2.9,5.9-2.9h4.8L116.3,177.4z M133,178.1l0.1,2h-5.1H123V178v-2.1l5,0.1l4.9,0.1L133,178.1z M149.7,177c1.2,3.4,1.6,3.1-4.3,3.1c-5.3,0-5.3,0-5.3-1.1c0-0.6-0.1-1.5-0.3-2.1c-0.3-1-0.2-1,4.6-1C149,175.9,149.3,176,149.7,177z M166.8,177.8c0.5,1,0.9,1.9,0.9,2.1c0,0.1-2.3,0.2-5,0.2h-5l-0.7-1.8c-0.4-1-0.7-2-0.7-2.1c0-0.1,2.2-0.2,4.8-0.2h4.8L166.8,177.8z M183.5,177.4c2.1,2.8,2.3,2.7-3.3,2.7h-5.1l-1.2-1.8c-0.6-1-1.2-1.9-1.2-2.1s2.2-0.2,4.8-0.2h4.8L183.5,177.4z M200.5,177.7c1,0.9,1.8,1.9,1.8,2.1c0,0.2-2.3,0.4-5,0.4h-5l-1.1-1.5c-2.1-2.8-2.2-2.6,2.9-2.6h4.7L200.5,177.7z M60.7,183.6c0,0.1-0.7,1.2-1.7,2.3l-1.7,2h-5.5c-3,0-5.5-0.1-5.5-0.3c0-0.2,0.9-1.2,1.9-2.3l1.9-2h5.2C58.4,183.3,60.7,183.5,60.7,183.6z M78.9,183.9c-0.2,0.3-0.8,1.4-1.4,2.3l-1.1,1.8h-5.5c-3,0-5.5-0.1-5.5-0.2c0-0.1,0.6-1.2,1.5-2.3l1.5-2.1h5.5C78,183.3,79.2,183.5,78.9,183.9z M97,183.9c-0.1,0.3-0.5,1.4-0.8,2.3l-0.6,1.8H90h-5.6l1-2.3l1-2.3h5.5C96,183.3,97.2,183.5,97,183.9z M115,185.5c-0.1,1.2-0.4,2.2-0.5,2.3c-0.1,0.1-2.6,0.1-5.7,0l-5.5-0.1l0.6-2.2l0.6-2.2h5.3h5.3L115,185.5z M133.6,185.6v2.3h-5.5h-5.5v-2.3v-2.3h5.5h5.5V185.6z M152,185c0.8,3,1,2.9-5,2.9c-3,0-5.5-0.1-5.5-0.4c0-0.2-0.2-1.2-0.4-2.3l-0.4-1.9h5.4h5.4L152,185z M170.7,185.6l1.2,2.3h-5.7h-5.7l-0.7-2.2c-0.4-1.2-0.7-2.2-0.7-2.3s2.4-0.1,5.3-0.1h5.3L170.7,185.6z M209.7,187.6c2.2,2.4,4.8,5.3,5.9,6.5l2,2.2h-6.2h-6.2l-3.3-4.1l-3.3-4.1H189h-9.5l-1.3-2.3l-1.3-2.3h14.4h14.5L209.7,187.6z M53,193.5l-2.2,2.8h-6.2h-6.2l1.1-1.3c0.6-0.7,1.7-1.9,2.4-2.8l1.4-1.5h5.9h5.9L53,193.5z M74.6,191c0,0.2-0.6,1.4-1.4,2.8l-1.4,2.5h-6.2c-4.9,0-6.2-0.1-5.9-0.6c0.2-0.3,1.1-1.5,1.9-2.8l1.6-2.2h5.7C72,190.7,74.6,190.8,74.6,191z M94.1,191.7c-0.2,0.6-0.6,1.8-0.9,2.7l-0.6,1.6l-6.3,0.1l-6.3,0.1l1.4-2.8l1.4-2.8h5.8h5.8L94.1,191.7z M114,192.4c-0.7,4.2,0,3.8-6.9,3.8H101l0.7-2.8l0.7-2.8h6h5.9L114,192.4z M134,193.5v2.8h-6.3c-5.5,0-6.2-0.1-6-0.7c0.1-0.4,0.3-1.7,0.3-2.8v-2h6h6V193.5z M154.4,193.6l0.8,2.7H149c-3.4,0-6.3-0.1-6.4-0.4c-0.1-0.2-0.4-1.4-0.6-2.8l-0.3-2.4l5.9,0.1l5.9,0.1L154.4,193.6z M174.6,193.5l1.4,2.8h-6.2h-6.2l-0.7-1.7c-0.4-0.9-0.8-2.2-1-2.8l-0.3-1.1h5.8h5.8L174.6,193.5z M194.9,193.5l2,2.8l-6.3-0.1l-6.3-0.1l-1.6-2.7l-1.5-2.6h5.9h5.9L194.9,193.5z M46.6,201.4c-0.2,0.3-1.4,1.9-2.7,3.5l-2.3,2.9h-6.9h-6.9l0.9-1.1c0.5-0.6,1.9-2.1,3.1-3.5l2.3-2.4h6.4C45.6,200.8,46.9,201,46.6,201.4z M157.6,204.1c0.5,1.7,0.8,3.1,0.9,3.3c0,0.2-24.2,0.4-53.7,0.4c-29.6,0-53.7-0.1-53.7-0.4c0-0.2,1.1-1.7,2.3-3.5l2.3-3.1l50.6,0.1l50.5,0.1L157.6,204.1z M179.9,204.1c0.9,1.8,1.6,3.3,1.6,3.5s-3.1,0.2-7,0.1l-7-0.1l-1.1-3c-0.6-1.7-1.1-3.1-1.1-3.4c0-0.2,2.9-0.3,6.5-0.3h6.5L179.9,204.1z M202.4,204.1c1.2,1.7,2.2,3.3,2.2,3.4c0,0.1-3.1,0.3-6.8,0.3c-6.6,0-6.9,0-7.4-1.1c-0.3-0.6-1.2-2.1-1.9-3.5l-1.4-2.4h6.5l6.6,0L202.4,204.1z M223.8,202.8c1,1.1,2.4,2.7,3.2,3.5l1.3,1.5h-7h-7l-2.6-3.2c-1.4-1.8-2.6-3.3-2.6-3.5c0-0.2,2.9-0.3,6.4-0.3h6.4L223.8,202.8z"/></g></g></g>
</svg>